# xmcd CD database file
#
# Track frame offsets:
#	150
#	18525
#	34425
#	51750
#	69000
#	86100
#	101700
#	122400
#	138075
#	155100
#
# Disc length: 2308 seconds
#
# Revision: 2
# Processed by: cddbd v1.5PL3 Copyright (c) Steve Scherf et al.
# Submitted via: CDex 1.51
#
DISCID=8209020a
DTITLE=Girlfriend - Make it come true
DYEAR=1992
DGENRE=Pop
TTITLE0=Girl's Life
TTITLE1=Take it from me
TTITLE2=without you
TTITLE3=all or nothing
TTITLE4=go for it
TTITLE5=what kinda girl
TTITLE6=promises
TTITLE7=skating on thin ice
TTITLE8=love's on my mind
TTITLE9=bad attitude
EXTD=1992 BMG.\nGirlfriend are Melanie, Lorinda, Robyn, Siobhan and Jacqui\n YEAR: 1992
EXTT0=
EXTT1=
EXTT2=
EXTT3=
EXTT4=
EXTT5=
EXTT6=
EXTT7=
EXTT8=
EXTT9=
PLAYORDER=
